<svg width="148" height="148" viewBox="0 0 148 148" fill="none" xmlns="http://www.w3.org/2000/svg">
<path d="M0.0952148 0.525024H5.99521V6.42502H0.0952148V0.525024ZM5.99521 0.525024H11.8952V6.42502H5.99521V0.525024ZM11.8952 0.525024H17.7952V6.42502H11.8952V0.525024ZM17.7952 0.525024H23.6952V6.42502H17.7952V0.525024ZM23.6952 0.525024H29.5952V6.42502H23.6952V0.525024ZM29.5952 0.525024H35.4952V6.42502H29.5952V0.525024ZM35.4952 0.525024H41.3952V6.42502H35.4952V0.525024ZM59.0762 0.525024H64.9762V6.42502H59.0762V0.525024ZM70.8662 0.525024H76.7662V6.42502H70.8662V0.525024ZM94.4472 0.525024H100.347V6.42502H94.4472V0.525024ZM106.237 0.525024H112.137V6.42502H106.237V0.525024ZM112.137 0.525024H118.037V6.42502H112.137V0.525024ZM118.037 0.525024H123.937V6.42502H118.037V0.525024ZM123.937 0.525024H129.837V6.42502H123.937V0.525024ZM129.837 0.525024H135.737V6.42502H129.837V0.525024ZM135.737 0.525024H141.637V6.42502H135.737V0.525024ZM141.637 0.525024H147.537V6.42502H141.637V0.525024ZM0.0952148 6.42502H5.99521V12.325H0.0952148V6.42502ZM35.4662 6.42502H41.3662V12.325H35.4662V6.42502ZM47.2562 6.42502H53.1562V12.325H47.2562V6.42502ZM59.0462 6.42502H64.9462V12.325H59.0462V6.42502ZM82.6272 6.42502H88.5272V12.325H82.6272V6.42502ZM88.5272 6.42502H94.4272V12.325H88.5272V6.42502ZM106.213 6.42502H112.113V12.325H106.213V6.42502ZM141.584 6.42502H147.484V12.325H141.584V6.42502ZM0.0952148 12.315H5.99521V18.215H0.0952148V12.315ZM11.8852 12.315H17.7852V18.215H11.8852V12.315ZM17.7852 12.315H23.6852V18.215H17.7852V12.315ZM23.6852 12.315H29.5852V18.215H23.6852V12.315ZM35.4752 12.315H41.3752V18.215H35.4752V12.315ZM70.8462 12.315H76.7462V18.215H70.8462V12.315ZM82.6362 12.315H88.5362V18.215H82.6362V12.315ZM88.5362 12.315H94.4362V18.215H88.5362V12.315ZM94.4362 12.315H100.336V18.215H94.4362V12.315ZM106.226 12.315H112.126V18.215H106.226V12.315ZM118.016 12.315H123.916V18.215H118.016V12.315ZM123.916 12.315H129.816V18.215H123.916V12.315ZM129.816 12.315H135.716V18.215H129.816V12.315ZM141.606 12.315H147.506V18.215H141.606V12.315ZM0.0952148 18.211H5.99521V24.111H0.0952148V18.211ZM11.8852 18.211H17.7852V24.111H11.8852V18.211ZM17.7852 18.211H23.6852V24.111H17.7852V18.211ZM23.6852 18.211H29.5852V24.111H23.6852V18.211ZM35.4752 18.211H41.3752V24.111H35.4752V18.211ZM47.2652 18.211H53.1652V24.111H47.2652V18.211ZM53.1652 18.211H59.0652V24.111H53.1652V18.211ZM59.0652 18.211H64.9652V24.111H59.0652V18.211ZM70.8552 18.211H76.7552V24.111H70.8552V18.211ZM76.7552 18.211H82.6552V24.111H76.7552V18.211ZM106.231 18.211H112.131V24.111H106.231V18.211ZM118.021 18.211H123.921V24.111H118.021V18.211ZM123.921 18.211H129.821V24.111H123.921V18.211ZM129.821 18.211H135.721V24.111H129.821V18.211ZM141.611 18.211H147.511V24.111H141.611V18.211ZM0.0952148 24.106H5.99521V30.006H0.0952148V24.106ZM11.8852 24.106H17.7852V30.006H11.8852V24.106ZM17.7852 24.106H23.6852V30.006H17.7852V24.106ZM23.6852 24.106H29.5852V30.006H23.6852V24.106ZM35.4752 24.106H41.3752V30.006H35.4752V24.106ZM53.1612 24.106H59.0612V30.006H53.1612V24.106ZM76.7422 24.106H82.6422V30.006H76.7422V24.106ZM94.4282 24.106H100.328V30.006H94.4282V24.106ZM106.218 24.106H112.118V30.006H106.218V24.106ZM118.008 24.106H123.908V30.006H118.008V24.106ZM123.908 24.106H129.808V30.006H123.908V24.106ZM129.808 24.106H135.708V30.006H129.808V24.106ZM141.598 24.106H147.498V30.006H141.598V24.106ZM0.0952148 30.001H5.99521V35.901H0.0952148V30.001ZM35.4662 30.001H41.3662V35.901H35.4662V30.001ZM47.2562 30.001H53.1562V35.901H47.2562V30.001ZM53.1562 30.001H59.0562V35.901H53.1562V30.001ZM64.9462 30.001H70.8462V35.901H64.9462V30.001ZM70.8462 30.001H76.7462V35.901H70.8462V30.001ZM76.7462 30.001H82.6462V35.901H76.7462V30.001ZM82.6462 30.001H88.5462V35.901H82.6462V30.001ZM88.5462 30.001H94.4462V35.901H88.5462V30.001ZM94.4462 30.001H100.346V35.901H94.4462V30.001ZM106.236 30.001H112.136V35.901H106.236V30.001ZM141.607 30.001H147.507V35.901H141.607V30.001ZM0.0952148 35.896H5.99521V41.796H0.0952148V35.896ZM5.99521 35.896H11.8952V41.796H5.99521V35.896ZM11.8952 35.896H17.7952V41.796H11.8952V35.896ZM17.7952 35.896H23.6952V41.796H17.7952V35.896ZM23.6952 35.896H29.5952V41.796H23.6952V35.896ZM29.5952 35.896H35.4952V41.796H29.5952V35.896ZM35.4952 35.896H41.3952V41.796H35.4952V35.896ZM47.2852 35.896H53.1852V41.796H47.2852V35.896ZM59.0752 35.896H64.9752V41.796H59.0752V35.896ZM70.8652 35.896H76.7652V41.796H70.8652V35.896ZM82.6552 35.896H88.5552V41.796H82.6552V35.896ZM94.4452 35.896H100.345V41.796H94.4452V35.896ZM106.235 35.896H112.135V41.796H106.235V35.896ZM112.135 35.896H118.035V41.796H112.135V35.896ZM118.035 35.896H123.935V41.796H118.035V35.896ZM123.935 35.896H129.835V41.796H123.935V35.896ZM129.835 35.896H135.735V41.796H129.835V35.896ZM135.735 35.896H141.635V41.796H135.735V35.896ZM141.635 35.896H147.535V41.796H141.635V35.896ZM53.2072 41.796H59.1072V47.696H53.2072V41.796ZM59.1072 41.796H65.0072V47.696H59.1072V41.796ZM65.0072 41.796H70.9072V47.696H65.0072V41.796ZM94.4832 41.796H100.383V47.696H94.4832V41.796ZM0.0952148 47.687H5.99521V53.587H0.0952148V47.687ZM5.99521 47.687H11.8952V53.587H5.99521V47.687ZM11.8952 47.687H17.7952V53.587H11.8952V47.687ZM17.7952 47.687H23.6952V53.587H17.7952V47.687ZM23.6952 47.687H29.5952V53.587H23.6952V47.687ZM35.4852 47.687H41.3852V53.587H35.4852V47.687ZM41.3852 47.687H47.2852V53.587H41.3852V47.687ZM47.2852 47.687H53.1852V53.587H47.2852V47.687ZM53.1852 47.687H59.0852V53.587H53.1852V47.687ZM64.9752 47.687H70.8752V53.587H64.9752V47.687ZM70.8752 47.687H76.7752V53.587H70.8752V47.687ZM76.7752 47.687H82.6752V53.587H76.7752V47.687ZM82.6752 47.687H88.5752V53.587H82.6752V47.687ZM88.5752 47.687H94.4752V53.587H88.5752V47.687ZM100.365 47.687H106.265V53.587H100.365V47.687ZM112.155 47.687H118.055V53.587H112.155V47.687ZM123.945 47.687H129.845V53.587H123.945V47.687ZM135.735 47.687H141.635V53.587H135.735V47.687ZM0.0952148 53.582H5.99521V59.482H0.0952148V53.582ZM5.99521 53.582H11.8952V59.482H5.99521V53.582ZM47.2612 53.582H53.1612V59.482H47.2612V53.582ZM59.0512 53.582H64.9512V59.482H59.0512V53.582ZM70.8412 53.582H76.7412V59.482H70.8412V53.582ZM94.4222 53.582H100.322V59.482H94.4222V53.582ZM100.322 53.582H106.222V59.482H100.322V53.582ZM112.112 53.582H118.012V59.482H112.112V53.582ZM135.693 53.582H141.593V59.482H135.693V53.582ZM17.7932 59.482H23.6932V65.382H17.7932V59.482ZM23.6932 59.482H29.5932V65.382H23.6932V59.482ZM29.5932 59.482H35.4932V65.382H29.5932V59.482ZM35.4932 59.482H41.3932V65.382H35.4932V59.482ZM47.2832 59.482H53.1832V65.382H47.2832V59.482ZM59.0732 59.482H64.9732V65.382H59.0732V59.482ZM76.7592 59.482H82.6592V65.382H76.7592V59.482ZM88.5492 59.482H94.4492V65.382H88.5492V59.482ZM94.4492 59.482H100.349V65.382H94.4492V59.482ZM100.349 59.482H106.249V65.382H100.349V59.482ZM106.249 59.482H112.149V65.382H106.249V59.482ZM112.149 59.482H118.049V65.382H112.149V59.482ZM118.049 59.482H123.949V65.382H118.049V59.482ZM123.949 59.482H129.849V65.382H123.949V59.482ZM135.739 59.482H141.639V65.382H135.739V59.482ZM141.639 59.482H147.539V65.382H141.639V59.482ZM0.0952148 65.372H5.99521V71.272H0.0952148V65.372ZM11.8852 65.372H17.7852V71.272H11.8852V65.372ZM17.7852 65.372H23.6852V71.272H17.7852V65.372ZM23.6852 65.372H29.5852V71.272H23.6852V65.372ZM47.2662 65.372H53.1662V71.272H47.2662V65.372ZM64.9522 65.372H70.8522V71.272H64.9522V65.372ZM70.8522 65.372H76.7522V71.272H70.8522V65.372ZM82.6422 65.372H88.5422V71.272H82.6422V65.372ZM94.4322 65.372H100.332V71.272H94.4322V65.372ZM100.332 65.372H106.232V71.272H100.332V65.372ZM112.122 65.372H118.022V71.272H112.122V65.372ZM141.598 65.372H147.498V71.272H141.598V65.372ZM5.99521 71.267H11.8952V77.167H5.99521V71.267ZM23.6812 71.267H29.5812V77.167H23.6812V71.267ZM29.5812 71.267H35.4812V77.167H29.5812V71.267ZM35.4812 71.267H41.3812V77.167H35.4812V71.267ZM47.2712 71.267H53.1712V77.167H47.2712V71.267ZM53.1712 71.267H59.0712V77.167H53.1712V71.267ZM59.0712 71.267H64.9712V77.167H59.0712V71.267ZM76.7572 71.267H82.6572V77.167H76.7572V71.267ZM82.6572 71.267H88.5572V77.167H82.6572V71.267ZM100.343 71.267H106.243V77.167H100.343V71.267ZM106.243 71.267H112.143V77.167H106.243V71.267ZM112.143 71.267H118.043V77.167H112.143V71.267ZM118.043 71.267H123.943V77.167H118.043V71.267ZM129.833 71.267H135.733V77.167H129.833V71.267ZM135.733 71.267H141.633V77.167H135.733V71.267ZM141.633 71.267H147.533V77.167H141.633V71.267ZM0.0952148 77.162H5.99521V83.062H0.0952148V77.162ZM17.7812 77.162H23.6812V83.062H17.7812V77.162ZM29.5712 77.162H35.4712V83.062H29.5712V77.162ZM64.9422 77.162H70.8422V83.062H64.9422V77.162ZM76.7322 77.162H82.6322V83.062H76.7322V77.162ZM94.4182 77.162H100.318V83.062H94.4182V77.162ZM100.318 77.162H106.218V83.062H100.318V77.162ZM112.108 77.162H118.008V83.062H112.108V77.162ZM123.898 77.162H129.798V83.062H123.898V77.162ZM135.688 77.162H141.588V83.062H135.688V77.162ZM0.0952148 83.058H5.99521V88.958H0.0952148V83.058ZM17.7812 83.058H23.6812V88.958H17.7812V83.058ZM23.6812 83.058H29.5812V88.958H23.6812V83.058ZM35.4712 83.058H41.3712V88.958H35.4712V83.058ZM41.3712 83.058H47.2712V88.958H41.3712V83.058ZM53.1612 83.058H59.0612V88.958H53.1612V83.058ZM59.0612 83.058H64.9612V88.958H59.0612V83.058ZM70.8512 83.058H76.7512V88.958H70.8512V83.058ZM76.7512 83.058H82.6512V88.958H76.7512V83.058ZM82.6512 83.058H88.5512V88.958H82.6512V83.058ZM88.5512 83.058H94.4512V88.958H88.5512V83.058ZM94.4512 83.058H100.351V88.958H94.4512V83.058ZM100.351 83.058H106.251V88.958H100.351V83.058ZM106.251 83.058H112.151V88.958H106.251V83.058ZM112.151 83.058H118.051V88.958H112.151V83.058ZM118.051 83.058H123.951V88.958H118.051V83.058ZM123.951 83.058H129.851V88.958H123.951V83.058ZM135.741 83.058H141.641V88.958H135.741V83.058ZM141.641 83.058H147.541V88.958H141.641V83.058ZM0.0952148 88.953H5.99521V94.853H0.0952148V88.953ZM17.7812 88.953H23.6812V94.853H17.7812V88.953ZM23.6812 88.953H29.5812V94.853H23.6812V88.953ZM29.5812 88.953H35.4812V94.853H29.5812V88.953ZM47.2672 88.953H53.1672V94.853H47.2672V88.953ZM59.0572 88.953H64.9572V94.853H59.0572V88.953ZM70.8472 88.953H76.7472V94.853H70.8472V88.953ZM82.6372 88.953H88.5372V94.853H82.6372V88.953ZM94.4272 88.953H100.327V94.853H94.4272V88.953ZM100.327 88.953H106.227V94.853H100.327V88.953ZM112.117 88.953H118.017V94.853H112.117V88.953ZM118.017 88.953H123.917V94.853H118.017V88.953ZM141.598 88.953H147.498V94.853H141.598V88.953ZM0.0952148 94.848H5.99521V100.748H0.0952148V94.848ZM11.8852 94.848H17.7852V100.748H11.8852V94.848ZM29.5712 94.848H35.4712V100.748H29.5712V94.848ZM35.4712 94.848H41.3712V100.748H35.4712V94.848ZM47.2612 94.848H53.1612V100.748H47.2612V94.848ZM53.1612 94.848H59.0612V100.748H53.1612V94.848ZM59.0612 94.848H64.9612V100.748H59.0612V94.848ZM76.7472 94.848H82.6472V100.748H76.7472V94.848ZM82.6472 94.848H88.5472V100.748H82.6472V94.848ZM94.4372 94.848H100.337V100.748H94.4372V94.848ZM100.337 94.848H106.237V100.748H100.337V94.848ZM106.237 94.848H112.137V100.748H106.237V94.848ZM112.137 94.848H118.037V100.748H112.137V94.848ZM118.037 94.848H123.937V100.748H118.037V94.848ZM129.827 94.848H135.727V100.748H129.827V94.848ZM47.2942 100.748H53.1942V106.648H47.2942V100.748ZM53.1942 100.748H59.0942V106.648H53.1942V100.748ZM59.0942 100.748H64.9942V106.648H59.0942V100.748ZM64.9942 100.748H70.8942V106.648H64.9942V100.748ZM76.7842 100.748H82.6842V106.648H76.7842V100.748ZM88.5742 100.748H94.4742V106.648H88.5742V100.748ZM94.4742 100.748H100.374V106.648H94.4742V100.748ZM118.055 100.748H123.955V106.648H118.055V100.748ZM123.955 100.748H129.855V106.648H123.955V100.748ZM0.0952148 106.638H5.99521V112.538H0.0952148V106.638ZM5.99521 106.638H11.8952V112.538H5.99521V106.638ZM11.8952 106.638H17.7952V112.538H11.8952V106.638ZM17.7952 106.638H23.6952V112.538H17.7952V106.638ZM23.6952 106.638H29.5952V112.538H23.6952V106.638ZM29.5952 106.638H35.4952V112.538H29.5952V106.638ZM35.4952 106.638H41.3952V112.538H35.4952V106.638ZM47.2852 106.638H53.1852V112.538H47.2852V106.638ZM82.6562 106.638H88.5562V112.538H82.6562V106.638ZM94.4462 106.638H100.346V112.538H94.4462V106.638ZM106.236 106.638H112.136V112.538H106.236V106.638ZM118.026 106.638H123.926V112.538H118.026V106.638ZM129.816 106.638H135.716V112.538H129.816V106.638ZM135.716 106.638H141.616V112.538H135.716V106.638ZM141.616 106.638H147.516V112.538H141.616V106.638ZM0.0952148 112.534H5.99521V118.434H0.0952148V112.534ZM35.4662 112.534H41.3662V118.434H35.4662V112.534ZM70.8372 112.534H76.7372V118.434H70.8372V112.534ZM82.6272 112.534H88.5272V118.434H82.6272V112.534ZM94.4172 112.534H100.317V118.434H94.4172V112.534ZM117.998 112.534H123.898V118.434H117.998V112.534ZM123.898 112.534H129.798V118.434H123.898V112.534ZM135.688 112.534H141.588V118.434H135.688V112.534ZM0.0952148 118.425H5.99521V124.325H0.0952148V118.425ZM11.8852 118.425H17.7852V124.325H11.8852V118.425ZM17.7852 118.425H23.6852V124.325H17.7852V118.425ZM23.6852 118.425H29.5852V124.325H23.6852V118.425ZM35.4752 118.425H41.3752V124.325H35.4752V118.425ZM47.2652 118.425H53.1652V124.325H47.2652V118.425ZM53.1652 118.425H59.0652V124.325H53.1652V118.425ZM59.0652 118.425H64.9652V124.325H59.0652V118.425ZM70.8552 118.425H76.7552V124.325H70.8552V118.425ZM76.7552 118.425H82.6552V124.325H76.7552V118.425ZM88.5452 118.425H94.4452V124.325H88.5452V118.425ZM94.4452 118.425H100.345V124.325H94.4452V118.425ZM100.345 118.425H106.245V124.325H100.345V118.425ZM106.245 118.425H112.145V124.325H106.245V118.425ZM112.145 118.425H118.045V124.325H112.145V118.425ZM118.045 118.425H123.945V124.325H118.045V118.425ZM129.835 118.425H135.735V124.325H129.835V118.425ZM0.0952148 124.325H5.99521V130.225H0.0952148V124.325ZM11.8852 124.325H17.7852V130.225H11.8852V124.325ZM17.7852 124.325H23.6852V130.225H17.7852V124.325ZM23.6852 124.325H29.5852V130.225H23.6852V124.325ZM35.4752 124.325H41.3752V130.225H35.4752V124.325ZM47.2652 124.325H53.1652V130.225H47.2652V124.325ZM64.9512 124.325H70.8512V130.225H64.9512V124.325ZM76.7412 124.325H82.6412V130.225H76.7412V124.325ZM94.4272 124.325H100.327V130.225H94.4272V124.325ZM106.217 124.325H112.117V130.225H106.217V124.325ZM118.007 124.325H123.907V130.225H118.007V124.325ZM123.907 124.325H129.807V130.225H123.907V124.325ZM129.807 124.325H135.707V130.225H129.807V124.325ZM135.707 124.325H141.607V130.225H135.707V124.325ZM141.607 124.325H147.507V130.225H141.607V124.325ZM0.0952148 130.219H5.99521V136.119H0.0952148V130.219ZM11.8852 130.219H17.7852V136.119H11.8852V130.219ZM17.7852 130.219H23.6852V136.119H17.7852V130.219ZM23.6852 130.219H29.5852V136.119H23.6852V130.219ZM35.4752 130.219H41.3752V136.119H35.4752V130.219ZM47.2652 130.219H53.1652V136.119H47.2652V130.219ZM53.1652 130.219H59.0652V136.119H53.1652V130.219ZM59.0652 130.219H64.9652V136.119H59.0652V130.219ZM76.7512 130.219H82.6512V136.119H76.7512V130.219ZM82.6512 130.219H88.5512V136.119H82.6512V130.219ZM123.917 130.219H129.817V136.119H123.917V130.219ZM129.817 130.219H135.717V136.119H129.817V130.219ZM141.607 130.219H147.507V136.119H141.607V130.219ZM0.0952148 136.114H5.99521V142.014H0.0952148V136.114ZM35.4662 136.114H41.3662V142.014H35.4662V136.114ZM47.2562 136.114H53.1562V142.014H47.2562V136.114ZM53.1562 136.114H59.0562V142.014H53.1562V136.114ZM82.6322 136.114H88.5322V142.014H82.6322V136.114ZM88.5322 136.114H94.4322V142.014H88.5322V136.114ZM94.4322 136.114H100.332V142.014H94.4322V136.114ZM100.332 136.114H106.232V142.014H100.332V136.114ZM112.122 136.114H118.022V142.014H112.122V136.114ZM118.022 136.114H123.922V142.014H118.022V136.114ZM123.922 136.114H129.822V142.014H123.922V136.114ZM141.608 136.114H147.508V142.014H141.608V136.114ZM0.0952148 142.01H5.99521V147.91H0.0952148V142.01ZM5.99521 142.01H11.8952V147.91H5.99521V142.01ZM11.8952 142.01H17.7952V147.91H11.8952V142.01ZM17.7952 142.01H23.6952V147.91H17.7952V142.01ZM23.6952 142.01H29.5952V147.91H23.6952V142.01ZM29.5952 142.01H35.4952V147.91H29.5952V142.01ZM35.4952 142.01H41.3952V147.91H35.4952V142.01ZM47.2852 142.01H53.1852V147.91H47.2852V142.01ZM59.0752 142.01H64.9752V147.91H59.0752V142.01ZM64.9752 142.01H70.8752V147.91H64.9752V142.01ZM70.8752 142.01H76.7752V147.91H70.8752V142.01ZM76.7752 142.01H82.6752V147.91H76.7752V142.01ZM82.6752 142.01H88.5752V147.91H82.6752V142.01ZM112.151 142.01H118.051V147.91H112.151V142.01ZM118.051 142.01H123.951V147.91H118.051V142.01ZM123.951 142.01H129.851V147.91H123.951V142.01ZM129.851 142.01H135.751V147.91H129.851V142.01ZM135.751 142.01H141.651V147.91H135.751V142.01ZM141.651 142.01H147.551V147.91H141.651V142.01Z" fill="black"/>
</svg>
