<svg width="8" height="14" viewBox="0 0 8 14" fill="none" xmlns="http://www.w3.org/2000/svg">
<path d="M7.47363 7.06445C7.47363 6.72266 7.35059 6.44238 7.07031 6.17578L1.90234 1.11035C1.69727 0.905273 1.44434 0.802734 1.14355 0.802734C0.541992 0.802734 0.0498047 1.29492 0.0498047 1.88965C0.0498047 2.19043 0.172852 2.4707 0.398438 2.68945L4.90332 7.05762L0.398438 11.4326C0.172852 11.6582 0.0498047 11.9316 0.0498047 12.2393C0.0498047 12.8408 0.541992 13.3262 1.14355 13.3262C1.44434 13.3262 1.69727 13.2236 1.90234 13.0186L7.07031 7.95312C7.35742 7.67969 7.47363 7.39941 7.47363 7.06445Z" fill="#3C3C43" fill-opacity="0.3"/>
</svg>
