<svg width="20" height="16" viewBox="0 0 20 16" fill="none" xmlns="http://www.w3.org/2000/svg">
<path d="M4.00039 16C3.47422 16.0075 2.9521 15.9071 2.46623 15.705C1.98036 15.5029 1.54104 15.2035 1.17539 14.825C0.796962 14.4594 0.497465 14.0201 0.295377 13.5342C0.0932896 13.0483 -0.00710392 12.5262 0.000390733 12V4.00002C-0.00710392 3.47386 0.0932896 2.95173 0.295377 2.46586C0.497465 1.97999 0.796962 1.54068 1.17539 1.17502C1.54104 0.796596 1.98036 0.497099 2.46623 0.295011C2.9521 0.0929234 3.47422 -0.00747013 4.00039 2.45219e-05H16.0004C17.0603 0.00318998 18.0759 0.425634 18.8253 1.17509C19.5748 1.92455 19.9972 2.94013 20.0004 4.00002V12C19.9972 13.0599 19.5748 14.0755 18.8253 14.825C18.0759 15.5744 17.0603 15.9969 16.0004 16H4.00039ZM4.00039 4.25002H16.0004C16.4639 4.2468 16.9245 4.3229 17.3624 4.47502C17.7785 4.61978 18.1643 4.84014 18.5004 5.12502V4.00002C18.5036 3.67083 18.4411 3.3443 18.3166 3.03954C18.1921 2.73477 18.0081 2.4579 17.7753 2.22511C17.5425 1.99232 17.2656 1.8083 16.9609 1.68379C16.6561 1.55929 16.3296 1.49682 16.0004 1.50002H4.00039C3.67119 1.49682 3.34466 1.55929 3.0399 1.68379C2.73514 1.8083 2.45827 1.99232 2.22548 2.22511C1.99269 2.4579 1.80866 2.73477 1.68416 3.03954C1.55966 3.3443 1.49718 3.67083 1.50039 4.00002V5.12502C1.83617 4.84025 2.22163 4.61989 2.63739 4.47502C3.07555 4.32279 3.53655 4.24669 4.00039 4.25002ZM1.57539 7.65002L13.5004 10.525C13.6182 10.5585 13.7424 10.563 13.8624 10.538C13.9807 10.5163 14.0898 10.4595 14.1754 10.375L18.1754 7.02502C17.9608 6.64379 17.6506 6.32501 17.2754 6.10002C16.8915 5.86628 16.4498 5.74501 16.0004 5.75002H4.00039C3.44175 5.74923 2.89903 5.93609 2.45929 6.28063C2.01955 6.62517 1.70827 7.10742 1.57539 7.65002Z" fill="#999999"/>
</svg>
