<svg width="64" height="64" viewBox="0 0 64 64" fill="none" xmlns="http://www.w3.org/2000/svg">
<path d="M0 13.84V0H13.84V4.8H4.8V13.84H0ZM0 64V50.16H4.8V59.2H13.84V64H0ZM50.16 64V59.2H59.2V50.16H64V64H50.16ZM59.2 13.84V4.8H50.16V0H64V13.84H59.2ZM50.24 50.32H55.28V55.36H50.24V50.32ZM50.24 40.24H55.28V45.28H50.24V40.24ZM45.2 45.28H50.24V50.32H45.2V45.28ZM40.16 50.32H45.2V55.36H40.16V50.32ZM35.12 45.28H40.16V50.32H35.12V45.28ZM45.2 35.2H50.24V40.24H45.2V35.2ZM40.16 40.24H45.2V45.28H40.16V40.24ZM35.12 35.2H40.16V40.24H35.12V35.2ZM55.28 8.64V28.8H35.12V8.64H55.28ZM28.8 35.2V55.36H8.64V35.2H28.8ZM28.8 8.64V28.8H8.64V8.64H28.8ZM24.8 51.36V39.2H12.64V51.36H24.8ZM24.8 24.8V12.64H12.64V24.8H24.8ZM51.28 24.8V12.64H39.12V24.8H51.28Z" fill="white"/>
</svg>
