<svg width="14" height="16" viewBox="0 0 14 16" fill="none" xmlns="http://www.w3.org/2000/svg">
<path d="M3.80001 13.6C3.48415 13.5924 3.18333 13.4635 2.95991 13.2401C2.7365 13.0167 2.60763 12.7159 2.60001 12.4V1.2C2.60763 0.884136 2.7365 0.583316 2.95991 0.359901C3.18333 0.136487 3.48415 0.00761447 3.80001 0H12.6C12.9159 0.00761447 13.2167 0.136487 13.4401 0.359901C13.6635 0.583316 13.7924 0.884136 13.8 1.2V12.4C13.7924 12.7159 13.6635 13.0167 13.4401 13.2401C13.2167 13.4635 12.9159 13.5924 12.6 13.6H3.80001ZM3.80001 12.4H12.6V1.2H3.80001V12.4ZM1.40001 16C1.08415 15.9924 0.783328 15.8635 0.559914 15.6401C0.336499 15.4167 0.207627 15.1159 0.200012 14.8V2.74H1.40001V14.8H10.88V16H1.40001ZM3.80001 1.2V12.4V1.2Z" fill="white"/>
</svg>
