<svg width="64" height="71" viewBox="0 0 64 71" fill="none" xmlns="http://www.w3.org/2000/svg">
<path d="M31.8869 2.25011e-05C35.6749 -0.00376109 39.4482 0.469632 43.1179 1.40902C46.7618 2.33878 50.2919 3.66817 53.6439 5.37302C53.7663 5.4064 53.8768 5.47382 53.9625 5.56745C54.0481 5.66109 54.1055 5.7771 54.1279 5.90202C54.1618 6.11694 54.1147 6.33678 53.9959 6.51902C53.8713 6.70163 53.7055 6.85235 53.5119 6.95902C53.3957 7.01742 53.2674 7.04783 53.1374 7.04783C53.0073 7.04783 52.8791 7.01742 52.7629 6.95902C49.5619 5.30339 46.1764 4.0319 42.6769 3.17102C35.6357 1.42429 28.2762 1.40919 21.2279 3.12702C17.7615 3.97924 14.4169 5.26681 11.2739 6.95902C11.1741 7.01556 11.0629 7.04888 10.9484 7.0565C10.834 7.06412 10.7193 7.04584 10.6129 7.00302C10.4512 6.90138 10.3145 6.76467 10.2129 6.60302C10.1498 6.53103 10.1017 6.44715 10.0715 6.3563C10.0412 6.26545 10.0295 6.16948 10.0369 6.07402C10.0308 5.97046 10.0519 5.8671 10.0983 5.77428C10.1446 5.68145 10.2145 5.6024 10.3009 5.54502C13.6429 3.7839 17.1742 2.4084 20.8269 1.44502C24.4355 0.486822 28.1532 0.00109654 31.8869 2.25011e-05ZM31.8869 8.90002C38.0924 8.86919 44.223 10.255 49.8119 12.952C55.3613 15.6036 60.1605 19.5991 63.7739 24.576C63.9234 24.7782 64.0009 25.0247 63.9939 25.276C63.949 25.4802 63.8413 25.6652 63.6859 25.805C63.5995 25.8917 63.4963 25.9598 63.3826 26.0051C63.269 26.0505 63.1472 26.0723 63.0249 26.069C62.8746 26.0583 62.7288 26.013 62.5989 25.9366C62.469 25.8603 62.3585 25.7551 62.2759 25.629C58.8711 20.8633 54.3088 17.0433 49.0189 14.529C43.6766 11.952 37.8172 10.6265 31.8859 10.653C25.9912 10.6176 20.1699 11.96 14.8859 14.573C9.65544 17.1419 5.1229 20.9361 1.67389 25.633C1.51132 25.8714 1.2811 26.0556 1.01289 26.162C0.789419 26.2184 0.55283 26.1869 0.351893 26.074C0.242535 26.0245 0.150535 25.9434 0.0877839 25.8411C0.0250333 25.7387 -0.00558308 25.6199 -0.00010769 25.5C-0.00120874 25.24 0.0590934 24.9834 0.175892 24.751C3.7454 19.762 8.49748 15.7369 14.0059 13.037C19.5623 10.2833 25.6856 8.86656 31.8869 8.90002ZM31.8869 26.253C37.0615 26.1637 42.0682 28.0889 45.8499 31.622C47.7249 33.2688 49.2199 35.3032 50.2313 37.5846C51.2428 39.866 51.7466 42.3398 51.7079 44.835C51.7249 44.9547 51.7139 45.0767 51.6756 45.1913C51.6374 45.306 51.573 45.4102 51.4875 45.4956C51.402 45.5811 51.2979 45.6455 51.1832 45.6838C51.0685 45.722 50.9466 45.7331 50.8269 45.716C50.5749 45.7279 50.3268 45.65 50.1269 45.496C50.0355 45.4132 49.9642 45.3106 49.9185 45.196C49.8728 45.0815 49.8537 44.958 49.8629 44.835C49.901 42.5705 49.4438 40.325 48.5233 38.2557C47.6028 36.1863 46.2412 34.3431 44.5339 32.855C41.1023 29.6715 36.5742 27.9358 31.8939 28.01C27.2381 27.9259 22.7337 29.6645 19.3419 32.855C17.6567 34.3563 16.3159 36.2042 15.4113 38.2719C14.5067 40.3396 14.0597 42.5784 14.1009 44.835C13.9771 49.2354 14.8667 53.6053 16.7009 57.607C18.7063 61.5087 21.3063 65.0746 24.4079 68.177C24.5074 68.2554 24.5871 68.356 24.6406 68.4708C24.6941 68.5857 24.7199 68.7114 24.7159 68.838C24.6793 69.0578 24.571 69.2593 24.4079 69.411C24.2585 69.5449 24.0757 69.6361 23.8789 69.675C23.7353 69.6959 23.5888 69.683 23.4511 69.6371C23.3134 69.5913 23.1883 69.5139 23.0859 69.411C19.923 66.0939 17.2507 62.3416 15.1499 58.268C13.1362 54.0819 12.1402 49.4792 12.2429 44.835C12.2011 42.3477 12.6948 39.8805 13.6903 37.6007C14.6859 35.321 16.1601 33.282 18.0129 31.622C21.7538 28.0806 26.7365 26.1509 31.8869 26.249V26.253ZM31.7989 43.87C31.9219 43.8609 32.0454 43.8799 32.1599 43.9256C32.2744 43.9714 32.377 44.0427 32.4599 44.134C32.6138 44.3339 32.6918 44.582 32.6799 44.834C32.6253 47.0603 33.0674 49.2707 33.9739 51.3047C34.8805 53.3388 36.2288 55.1453 37.9209 56.593C41.2312 59.6057 45.5571 61.2572 50.0329 61.217C50.4996 61.217 51.0576 61.1877 51.7069 61.129C52.3562 61.0704 53.0609 60.9824 53.8209 60.865C53.9398 60.8315 54.0649 60.8259 54.1864 60.8488C54.3078 60.8717 54.4223 60.9224 54.5209 60.997C54.6814 61.1221 54.8034 61.2898 54.8729 61.481C54.9342 61.6852 54.9186 61.9047 54.8289 62.098C54.7671 62.197 54.6832 62.2804 54.5838 62.3414C54.4844 62.4025 54.3721 62.4397 54.2559 62.45C53.3525 62.7174 52.4214 62.8798 51.4809 62.934C50.6882 62.9634 50.2039 62.978 50.0279 62.978C45.0541 63.0524 40.2429 61.2068 36.5949 57.825C34.7574 56.2049 33.2968 54.2023 32.3154 51.9577C31.334 49.7132 30.8556 47.2811 30.9139 44.832C30.902 44.58 30.98 44.3319 31.1339 44.132C31.217 44.0397 31.3201 43.9678 31.4354 43.9216C31.5507 43.8755 31.6751 43.8565 31.7989 43.866V43.87ZM31.8869 35.062C34.5827 35.0151 37.1898 36.0256 39.1499 37.877C40.127 38.7503 40.9042 39.824 41.4287 41.0249C41.9531 42.2259 42.2124 43.5258 42.1889 44.836C42.1761 45.9098 42.4029 46.9729 42.8526 47.948C43.3024 48.9231 43.9638 49.7857 44.7889 50.473C46.4401 51.9689 48.595 52.7867 50.8229 52.763C52.9981 52.7853 55.0975 51.9646 56.6809 50.473C57.4838 49.7723 58.1243 48.905 58.5578 47.9314C58.9913 46.9579 59.2073 45.9016 59.1909 44.836C59.2526 41.4065 58.5631 38.005 57.1707 34.8703C55.7784 31.7356 53.7169 28.9435 51.1309 26.69C45.8946 21.8678 39.0012 19.2493 31.8839 19.379C24.7676 19.2501 17.8754 21.8685 12.6399 26.69C10.0539 28.9435 7.99243 31.7356 6.60006 34.8703C5.20768 38.005 4.51816 41.4065 4.57989 44.836C4.61622 46.6799 4.77793 48.5191 5.06389 50.341C5.48552 52.9747 6.17923 55.5575 7.13389 58.048C7.19311 58.1481 7.22435 58.2622 7.22435 58.3785C7.22435 58.4948 7.19311 58.6089 7.13389 58.709C7.00883 58.8643 6.86039 58.9993 6.69389 59.109C6.4624 59.2257 6.19713 59.2569 5.94489 59.197C5.8119 59.1657 5.68926 59.1005 5.58887 59.0078C5.48848 58.9151 5.41374 58.7981 5.37189 58.668C4.60881 56.438 4.00529 54.1566 3.56589 51.841C3.12658 49.5336 2.90527 47.1899 2.90489 44.841C2.87022 41.1744 3.62289 37.5431 5.11204 34.1923C6.60119 30.8415 8.79215 27.8494 11.5369 25.418C16.9967 20.1616 24.3065 17.2661 31.8849 17.358C39.5102 17.2186 46.8888 20.061 52.4499 25.28C55.207 27.7273 57.402 30.7421 58.8844 34.1175C60.3667 37.4929 61.1014 41.149 61.0379 44.835C61.0575 46.127 60.801 47.4082 60.2857 48.5931C59.7705 49.778 59.0082 50.8393 58.0499 51.706C56.1095 53.5635 53.5125 54.577 50.8269 54.525C48.0884 54.5783 45.4359 53.5678 43.4269 51.706C42.4452 50.8531 41.6609 49.7966 41.1285 48.6101C40.5962 47.4236 40.3284 46.1354 40.3439 44.835C40.3668 43.7555 40.1541 42.684 39.7207 41.6951C39.2872 40.7062 38.6433 39.8237 37.8339 39.109C36.2222 37.6061 34.0913 36.7854 31.8879 36.819C29.6722 36.7904 27.5294 37.6096 25.8979 39.109C25.0774 39.817 24.4232 40.6972 23.9817 41.6869C23.5403 42.6767 23.3225 43.7515 23.3439 44.835C23.1639 50.4527 25.1506 55.9245 28.8929 60.118C32.6132 64.2123 37.4026 67.1866 42.7219 68.706C42.9901 68.7634 43.2264 68.9207 43.3829 69.146C43.4726 69.3394 43.4882 69.5589 43.4269 69.763C43.4166 69.8793 43.3794 69.9915 43.3183 70.0909C43.2572 70.1904 43.1739 70.2743 43.0749 70.336C42.8526 70.4267 42.6068 70.4421 42.3749 70.38C36.579 68.9489 31.3654 65.7652 27.4449 61.263C23.5157 56.707 21.4269 50.8493 21.5869 44.835C21.5634 43.5248 21.8227 42.2249 22.3471 41.0239C22.8716 39.823 23.6488 38.7493 24.6259 37.876C26.585 36.024 29.1913 35.0125 31.8869 35.058V35.062Z" fill="white"/>
</svg>
