<svg width="165" height="165" viewBox="0 0 165 165" fill="none" xmlns="http://www.w3.org/2000/svg">
<path d="M60.306 83.687H82.146L87.026 78.807L91.906 83.687H113.746L97.946 67.887L113.906 51.927L113.843 51.864H92.129L87.0291 56.964L81.929 51.864H60.2159L60.152 51.927L76.1119 67.887L60.306 83.687Z" fill="white"/>
<path d="M72.621 67.719H50.907L45.807 72.819L40.707 67.719H18.9869L18.923 67.782L34.884 83.742L45.804 94.662L56.724 83.742L72.687 67.781L72.621 67.719Z" fill="white"/>
<path d="M146.304 85.905H124.59L119.49 91.0051L114.39 85.905H92.277L87.177 91.0051L82.077 85.905H60.3569L60.293 85.9681L76.2531 101.928L87.173 112.848L98.094 101.928L103.33 96.6921L108.566 101.928L119.486 112.848L130.406 101.928L146.366 85.9681L146.304 85.905Z" fill="white"/>
<path d="M82.5 165C60.6273 164.975 39.6575 156.275 24.1912 140.809C8.7248 125.342 0.0248792 104.373 0 82.5C0.0248792 60.6273 8.7248 39.6575 24.1912 24.1912C39.6575 8.7248 60.6273 0.0248792 82.5 0C104.373 0.0248792 125.342 8.7248 140.809 24.1912C156.275 39.6575 164.975 60.6273 165 82.5C164.975 104.373 156.275 125.342 140.809 140.809C125.342 156.275 104.373 164.975 82.5 165ZM82.5 8C62.7483 8.0225 43.8119 15.8788 29.8453 29.8454C15.8788 43.812 8.0225 62.7483 8 82.5C8.02223 102.252 15.8784 121.188 29.8451 135.155C43.8117 149.122 62.7482 156.978 82.5 157C102.252 156.978 121.188 149.122 135.155 135.155C149.122 121.188 156.978 102.252 157 82.5C156.978 62.7483 149.121 43.812 135.155 29.8454C121.188 15.8788 102.252 8.0225 82.5 8Z" fill="white"/>
</svg>
