<svg width="48" height="48" viewBox="0 0 48 48" fill="none" xmlns="http://www.w3.org/2000/svg">
<path d="M17.3612 24.341H23.6482L25.0481 22.941L26.4481 24.341H32.7351L28.1871 19.792L32.7811 15.197L32.7632 15.179H26.5122L25.0442 16.647L23.5762 15.179H17.3252L17.3071 15.197L21.9021 19.792L17.3612 24.341Z" fill="white"/>
<path d="M20.9071 19.744H14.6561L13.1881 21.212L11.7201 19.744H5.46912L5.45117 19.762L10.0461 24.357L13.1902 27.501L16.3341 24.357L20.9341 19.762L20.9071 19.744Z" fill="white"/>
<path d="M42.1189 24.98H35.8679L34.3999 26.448L32.9319 24.98H26.5659L25.0979 26.448L23.6299 24.98H17.377L17.3589 24.998L21.954 29.593L25.0979 32.737L28.2419 29.593L29.7489 28.086L31.256 29.593L34.3999 32.737L37.5439 29.593L42.1379 24.998L42.1189 24.98Z" fill="white"/>
<path d="M23.7502 48C17.4202 47.9603 11.3645 45.4111 6.91195 40.9116C2.45937 36.4122 -0.0263988 30.3301 0.000211465 24C-0.0263988 17.6699 2.45937 11.5878 6.91195 7.08838C11.3645 2.58893 17.4202 0.0396729 23.7502 0C30.0802 0.0396729 36.1359 2.58893 40.5885 7.08838C45.041 11.5878 47.5268 17.6699 47.5002 24C47.5268 30.3301 45.041 36.4122 40.5885 40.9116C36.1359 45.4111 30.0802 47.9603 23.7502 48ZM23.7502 2.32697C18.0342 2.36346 12.5661 4.66583 8.54538 8.72888C4.52469 12.7919 2.27977 18.2839 2.30319 24C2.27977 29.7161 4.52469 35.2081 8.54538 39.2711C12.5661 43.3342 18.0342 45.6365 23.7502 45.673C29.4662 45.6365 34.9344 43.3342 38.955 39.2711C42.9757 35.2081 45.2207 29.7161 45.1972 24C45.2207 18.2839 42.9757 12.7919 38.955 8.72888C34.9344 4.66583 29.4662 2.36346 23.7502 2.32697Z" fill="white"/>
</svg>
