<svg width="32" height="32" viewBox="0 0 32 32" fill="none" xmlns="http://www.w3.org/2000/svg">
<path d="M11.4891 16.231H15.7372L16.6862 15.282L17.6351 16.231H21.8832L18.8102 13.158L21.9102 10.058L21.8981 10.046H17.6741L16.6821 11.038L15.6901 10.046H11.4672L11.4551 10.058L14.5552 13.158L11.4891 16.231Z" fill="white"/>
<path d="M14.1262 13.124H9.90222L8.91016 14.116L7.91821 13.124H3.69312L3.68115 13.136L6.78113 16.236L8.90515 18.36L11.0292 16.236L14.1292 13.136L14.1262 13.124Z" fill="white"/>
<path d="M28.0264 16.662H23.8024L22.8104 17.654L21.8184 16.662H17.5184L16.5264 17.654L15.5344 16.662H11.3094L11.2974 16.674L14.3975 19.774L16.5214 21.898L18.6454 19.774L19.6635 18.756L20.6824 19.774L22.8064 21.898L24.9304 19.774L28.0304 16.674L28.0264 16.662Z" fill="white"/>
<path d="M15.8312 32C11.6117 31.9728 7.57516 30.2729 4.60732 27.2734C1.63947 24.2738 -0.0174277 20.2196 0.00013826 16C-0.0174277 11.7804 1.63947 7.72615 4.60732 4.72662C7.57516 1.72709 11.6117 0.0272398 15.8312 0C20.0507 0.0272398 24.0871 1.72709 27.0549 4.72662C30.0228 7.72615 31.6797 11.7804 31.6621 16C31.6797 20.2196 30.0228 24.2738 27.0549 27.2734C24.0871 30.2729 20.0507 31.9728 15.8312 32ZM15.8312 1.552C12.0202 1.57554 8.37418 3.10999 5.69325 5.81866C3.01233 8.52734 1.51544 12.189 1.53114 16C1.51544 19.811 3.01233 23.4727 5.69325 26.1813C8.37418 28.89 12.0202 30.4245 15.8312 30.448C19.6422 30.4245 23.2881 28.89 25.969 26.1813C28.6499 23.4727 30.1468 19.811 30.1311 16C30.1468 12.189 28.6499 8.52734 25.969 5.81866C23.2881 3.10999 19.6422 1.57554 15.8312 1.552Z" fill="white"/>
</svg>
