<svg width="342" height="342" viewBox="0 0 342 342" fill="none" xmlns="http://www.w3.org/2000/svg">
<path d="M6.95 81.99C6.179 82.0384 5.4063 81.9267 4.68053 81.662C3.95477 81.3973 3.29161 80.9854 2.73278 80.452C2.17394 79.9186 1.73155 79.2754 1.43334 78.5627C1.13513 77.8501 0.987576 77.0834 0.999991 76.311V9.66298C0.999991 7.36515 1.91277 5.16146 3.53759 3.53664C5.1624 1.91183 7.36616 0.998984 9.66399 0.998984H76.311C77.0834 0.986569 77.85 1.13412 78.5627 1.43233C79.2753 1.73054 79.9186 2.173 80.452 2.73183C80.9853 3.29067 81.3974 3.95382 81.662 4.67959C81.9267 5.40535 82.0384 6.17799 81.99 6.949C81.886 8.3429 81.2589 9.64595 80.2344 10.5968C79.2099 11.5477 77.8638 12.0761 76.466 12.076H17.153C15.807 12.076 14.5162 12.6107 13.5644 13.5625C12.6127 14.5142 12.078 15.805 12.078 17.151V76.463C12.0788 77.8615 11.5506 79.2085 10.5995 80.2337C9.64832 81.2588 8.3446 81.8862 6.95 81.99V81.99Z" fill="white"/>
<path d="M335.05 260.01C335.821 259.962 336.594 260.073 337.319 260.338C338.045 260.603 338.708 261.015 339.267 261.548C339.826 262.081 340.268 262.725 340.567 263.437C340.865 264.15 341.012 264.917 341 265.689V332.337C341 334.635 340.087 336.839 338.462 338.463C336.838 340.088 334.634 341.001 332.336 341.001H265.689C264.917 341.013 264.15 340.866 263.437 340.568C262.725 340.27 262.081 339.827 261.548 339.268C261.015 338.709 260.603 338.046 260.338 337.32C260.073 336.595 259.962 335.822 260.01 335.051C260.114 333.657 260.741 332.354 261.766 331.403C262.79 330.452 264.136 329.924 265.534 329.924H324.847C326.193 329.924 327.484 329.389 328.436 328.438C329.387 327.486 329.922 326.195 329.922 324.849V265.537C329.921 264.139 330.449 262.792 331.401 261.766C332.352 260.741 333.655 260.114 335.05 260.01V260.01Z" fill="white"/>
<path d="M260.01 6.95002C259.962 6.17901 260.073 5.40631 260.338 4.68055C260.603 3.95479 261.015 3.29163 261.548 2.73279C262.081 2.17396 262.725 1.73157 263.437 1.43336C264.15 1.13515 264.917 0.987591 265.689 1.00001L332.337 1.00001C334.635 1.00001 336.839 1.91279 338.463 3.5376C340.088 5.16242 341.001 7.36617 341.001 9.66401V76.311C341.013 77.0834 340.866 77.85 340.568 78.5627C340.27 79.2753 339.827 79.9186 339.268 80.452C338.709 80.9854 338.046 81.3974 337.32 81.6621C336.595 81.9267 335.822 82.0384 335.051 81.99C333.657 81.886 332.354 81.2589 331.403 80.2344C330.452 79.2099 329.924 77.8638 329.924 76.466V17.153C329.924 15.807 329.389 14.5162 328.438 13.5645C327.486 12.6127 326.195 12.078 324.849 12.078L265.537 12.078C264.139 12.0788 262.792 11.5507 261.766 10.5995C260.741 9.64833 260.114 8.34462 260.01 6.95002V6.95002Z" fill="white"/>
<path d="M81.99 335.05C82.0384 335.821 81.9267 336.594 81.662 337.319C81.3973 338.045 80.9854 338.708 80.452 339.267C79.9186 339.826 79.2753 340.268 78.5627 340.567C77.85 340.865 77.0834 341.012 76.311 341H9.66297C7.36513 341 5.16144 340.087 3.53663 338.462C1.91181 336.838 0.998968 334.634 0.998968 332.336L0.998968 265.689C0.986554 264.917 1.13411 264.15 1.43232 263.437C1.73053 262.725 2.17298 262.081 2.73182 261.548C3.29065 261.015 3.95381 260.603 4.67957 260.338C5.40533 260.073 6.17797 259.962 6.94898 260.01C8.34288 260.114 9.64593 260.741 10.5968 261.766C11.5477 262.79 12.0761 264.136 12.076 265.534L12.076 324.847C12.076 326.193 12.6107 327.484 13.5624 328.436C14.5142 329.387 15.805 329.922 17.151 329.922H76.463C77.8615 329.921 79.2085 330.449 80.2337 331.401C81.2588 332.352 81.8862 333.655 81.99 335.05V335.05Z" fill="white"/>
</svg>
