<svg width="20" height="16" viewBox="0 0 20 16" fill="none" xmlns="http://www.w3.org/2000/svg">
<path d="M3.9999 16C3.47373 16.0075 2.95161 15.9071 2.46574 15.705C1.97987 15.5029 1.54055 15.2035 1.1749 14.825C0.796474 14.4594 0.496977 14.0201 0.294889 13.5342C0.0928013 13.0483 -0.0075922 12.5262 -9.75484e-05 12V4.00002C-0.0075922 3.47386 0.0928013 2.95173 0.294889 2.46586C0.496977 1.97999 0.796474 1.54068 1.1749 1.17502C1.54055 0.796596 1.97987 0.497099 2.46574 0.295011C2.95161 0.0929234 3.47373 -0.00747013 3.9999 2.45219e-05H15.9999C17.0598 0.00318998 18.0754 0.425634 18.8248 1.17509C19.5743 1.92455 19.9967 2.94013 19.9999 4.00002V12C19.9967 13.0599 19.5743 14.0755 18.8248 14.825C18.0754 15.5744 17.0598 15.9969 15.9999 16H3.9999ZM3.9999 4.25002H15.9999C16.4634 4.2468 16.9241 4.3229 17.3619 4.47502C17.778 4.61978 18.1638 4.84014 18.4999 5.12502V4.00002C18.5031 3.67083 18.4406 3.3443 18.3161 3.03954C18.1916 2.73477 18.0076 2.4579 17.7748 2.22511C17.542 1.99232 17.2652 1.8083 16.9604 1.68379C16.6556 1.55929 16.3291 1.49682 15.9999 1.50002H3.9999C3.67071 1.49682 3.34418 1.55929 3.03941 1.68379C2.73465 1.8083 2.45778 1.99232 2.22499 2.22511C1.9922 2.4579 1.80817 2.73477 1.68367 3.03954C1.55917 3.3443 1.4967 3.67083 1.4999 4.00002V5.12502C1.83568 4.84025 2.22114 4.61989 2.6369 4.47502C3.07507 4.32279 3.53606 4.24669 3.9999 4.25002ZM1.5749 7.65002L13.4999 10.525C13.6178 10.5585 13.742 10.563 13.8619 10.538C13.9802 10.5163 14.0893 10.4595 14.1749 10.375L18.1749 7.02502C17.9603 6.64379 17.6501 6.32501 17.2749 6.10002C16.8911 5.86628 16.4493 5.74501 15.9999 5.75002H3.9999C3.44126 5.74923 2.89854 5.93609 2.4588 6.28063C2.01906 6.62517 1.70778 7.10742 1.5749 7.65002Z" fill="#007AFF"/>
</svg>
